# AST/ASF file generated using VICON BodyLanguage
# -----------------------------------------------
:version 1.10
:name VICON
:units
  mass 1.0
  length 0.45
  angle deg
:documentation
   .ast/.asf automatically generated from VICON data using
   VICON BodyBuilder and BodyLanguage model FoxedUp or BRILLIANT.MOD
:root
   order TX TY TZ RX RY RZ
   axis XYZ
   position 0 0 0  
   orientation 0 0 0 
:bonedata
  begin
     id 1 
     name lhipjoint
     direction 0.623529 -0.717805 0.309788 
     length 2.23224 
     axis 0 0 0  XYZ
  end
  begin
     id 2 
     name lfemur
     direction 0.34202 -0.939693 0  
     length 7.11402  
     axis 0 0 20  XYZ
    dof rx ry rz
    limits (-160.0 20.0)
           (-70.0 70.0)
           (-60.0 70.0)
  end
  begin
     id 3 
     name ltibia
     direction 0.34202 -0.939693 0   
     length 6.78496   
     axis 0 0 20   XYZ
    dof rx
    limits (-10.0 170.0)
  end
  begin
     id 4 
     name lfoot
     direction 0.125078 -0.343648 0.930732   
     length 1.84054   
     axis -90 7.62852e-016 20   XYZ
    dof rx rz
    limits (-45.0 90.0)
           (-70.0 20.0)
  end
  begin
     id 5 
     name ltoes
     direction 1.53565e-011 -4.21893e-011 1   
     length 0.916474   
     axis -90 7.62852e-016 20   XYZ
    dof rx
    limits (-90.0 20.0)
  end
  begin
     id 6 
     name rhipjoint
     direction -0.564688 -0.757748 0.327026   
     length 2.11457  
     axis 0 0 0  XYZ 
  end
  begin
     id 7 
     name rfemur
     direction -0.34202 -0.939693 0   
     length 7.14609   
     axis 0 0 -20   XYZ
    dof rx ry rz
    limits (-160.0 20.0)
           (-70.0 70.0)
           (-70.0 60.0)
  end
  begin
     id 8 
     name rtibia
     direction -0.34202 -0.939693 0   
     length 6.78101   
     axis 0 0 -20   XYZ
    dof rx
    limits (-10.0 170.0)
 end
 begin
     id 9 
     name rfoot
     direction -0.0992671 -0.272734 0.956955   
     length 1.96168  
     axis -90 -7.62852e-016 -20   XYZ
    dof rx rz
    limits (-45.0 90.0)
           (-20.0 70.0)
  end
  begin
     id 10 
     name rtoes
     direction -1.5356e-011 -4.21891e-011 1   
     length 0.982933   
     axis -90 -7.62852e-016 -20   XYZ
    dof rx
    limits (-90.0 20.0)
  end
  begin
     id 11 
     name lowerback
     direction -0.00596953 0.998668 0.0512524   
     length 1.87557   
     axis 0 0 0   XYZ
    dof rx ry rz
    limits (-20.0 45.0)
           (-30.0 30.0)
           (-30.0 30.0)
  end
  begin
     id 12 
     name upperback
     direction 0.00584879 0.999652 0.0257308   
     length 1.87883   
     axis 0 0 0   XYZ
    dof rx ry rz
    limits (-20.0 45.0)
           (-30.0 30.0)
           (-30.0 30.0)
  end
  begin
     id 13 
     name thorax
     direction 0.010104 0.999947 0.00178881   
     length 1.87779   
     axis 0 0 0   XYZ
    dof rx ry rz
    limits (-20.0 45.0)
           (-30.0 30.0)
           (-30.0 30.0)
  end
  begin
     id 14 
     name lowerneck
     direction 0.0120771 0.995934 -0.0892773   
     length 1.40897   
     axis 0 0 0   XYZ
    dof rx ry rz
    limits (-20.0 45.0)
           (-30.0 30.0)
           (-30.0 30.0)
  end
  begin
     id 15 
     name upperneck
     direction -0.030568 0.999465 -0.0116366   
     length 1.38661   
     axis 0 0 0   XYZ
    dof rx ry rz
    limits (-20.0 45.0)
           (-30.0 30.0)
           (-30.0 30.0)
  end
  begin
     id 16
     name head
     direction -0.0170715 0.999854 -0.00104426  
     length 1.47052  
     axis 0 0 0   XYZ
    dof rx ry rz
    limits (-20.0 45.0)
           (-30.0 30.0)
           (-30.0 30.0)
  end
  begin
     id 17 
     name lclavicle
     direction 0.977763 0.206143 0.038532  
     length 3.02424  
     axis 0 0 0   XYZ
    dof ry rz
    limits (-20.0 10.0)
           (0.0 20.0)
  end
  begin
     id 18 
     name lhumerus
     direction 1 -4.48965e-011 -2.62654e-027   
     length 4.68382   
     axis 180 -30 -90   XYZ
    dof rx ry rz
    limits (-60.0 90.0)
           (-90.0 90.0)
           (-90.0 90.0)
  end
  begin
     id 19
     name lradius
     direction 1 -4.48973e-011 -1.54954e-027   
     length 2.98124   
     axis 180 -30 -90   XYZ
    dof rx
    limits (-10.0 170.0)
  end
  begin
     id 20
     name lwrist
     direction 1 -4.48959e-011 7.20928e-028   
     length 1.49062   
     axis -5.52449e-016 90 90   XYZ
    dof ry
    limits (-180.0 0.0)
 end
  begin
     id 21 
     name lhand
     direction 1 -4.48971e-011 1.44186e-027   
     length 0.707595   
     axis -9.20027e-016 90 90   XYZ
    dof rx rz
    limits (-90.0 90.0)
           (-45.0 45.0)
  end
  begin
     id 22 
     name lfingers
     direction 1 -4.48985e-011 2.88371e-027   
     length 0.570481   
     axis -1.84005e-015 90 90   XYZ
    dof rx
    limits (0.0 90.0)
  end
  begin
     id 23
     name lthumb
     direction 0.707107 -6.34929e-011 0.707107   
     length 0.819101   
     axis -90 45 2.85299e-015   XYZ
    dof rx rz
    limits (-45.0 45.0)
           (-45.0 45.0)
  end
  begin
     id 24 
     name rclavicle
     direction -0.958661 0.284411 -0.00895327   
     length 3.11921  
     axis 0 0 0   XYZ 
    dof ry rz
    limits (-10.0 20.0)
           (-20.0 0.0)
  end
  begin
     id 25 
     name rhumerus
     direction -1 -4.48963e-011 -4.22193e-027  
     length 4.75876   
     axis 180 30 90   XYZ
    dof rx ry rz
    limits (-90.0 60.0)
           (-90.0 90.0)
           (-90.0 90.0)
  end
  begin
     id 26 
     name rradius
     direction -1 -4.48968e-011 -1.07616e-027   
     length 2.93293   
     axis 180 30 90   XYZ
    dof rx
    limits (-10.0 170.0)
  end
  begin
     id 27 
     name rwrist
     direction -1 -4.48965e-011 7.20928e-028   
     length 1.46647   
     axis -5.52449e-016 -90 -90   XYZ
    dof ry
    limits (-180.0 0.0)
  end
  begin
     id 28
     name rhand
     direction -1 -4.48971e-011 1.44186e-027   
     length 0.831748   
     axis -9.20027e-016 -90 -90   XYZ
    dof rx rz
    limits (-90.0 90.0)
           (-45.0 45.0)
  end
  begin
     id 29
     name rfingers
     direction -1 -4.48961e-011 2.88371e-027   
     length 0.670577   
     axis -1.84005e-015 -90 -90   XYZ
    dof rx
    limits (0.0 90.0)
  end
  begin
     id 30
     name rthumb
     direction -0.707107 -6.34929e-011 0.707107   
     length 0.962818   
     axis -90 -45 -2.85299e-015   XYZ
    dof rx rz
    limits (-45.0 45.0)
           (-45.0 45.0)
  end
:hierarchy
  begin
    root lhipjoint rhipjoint lowerback
    lhipjoint lfemur
    lfemur ltibia
    ltibia lfoot
    lfoot ltoes
    rhipjoint rfemur
    rfemur rtibia
    rtibia rfoot
    rfoot rtoes
    lowerback upperback
    upperback thorax
    thorax lowerneck lclavicle rclavicle
    lowerneck upperneck
    upperneck head
    lclavicle lhumerus
    lhumerus lradius
    lradius lwrist
    lwrist lhand lthumb
    lhand lfingers
    rclavicle rhumerus
    rhumerus rradius
    rradius rwrist
    rwrist rhand rthumb
    rhand rfingers
  end

#!OML:ASF E:\id_vita\Project 1\Capture day 1\Session 1\Female.ASF
:FULLY-SPECIFIED
:DEGREES
106
root 16.7578 16.4643 0.1266 -167.053 70.4611 174.065
lowerback -17.0272 1.6397 -5.77501
upperback -6.42119 3.69845 -2.27176
thorax 2.46457 2.10655 1.55884
lowerneck 10.1023 1.28197 -5.24426
upperneck -16.3061 2.41011 7.40355
head -6.77446 0.97129 3.03572
rclavicle -8.96767e-014 -8.74653e-015
rhumerus -37.9313 -32.7472 -74.3095
rradius 18.0701
rwrist 31.0846
rhand -17.0993 12.9117
rfingers 7.12502
rthumb 9.13957 -16.8702
lclavicle -8.96767e-014 -8.74653e-015
lhumerus -131.349 30.8469 -63.4644
lradius 13.844
lwrist -127.368
lhand -3.33279 26.9786
lfingers 7.12502
lthumb 22.3945 55.7005
rfemur 11.6088 5.19986 19.4127
rtibia 5.08889e-014
rfoot 1.29116 3.87266
rtoes -23.6913
lfemur -41.5862 -6.93541 -21.8523
ltibia 29.5858
lfoot -7.52301 4.97248
ltoes 3.99282
107
root 16.8648 16.4727 0.0500874 -167.151 70.2698 174.148
lowerback -17.0503 1.61698 -5.72639
upperback -6.40702 3.65963 -2.21715
thorax 2.49378 2.08557 1.58389
lowerneck 9.98861 1.25125 -5.33946
upperneck -16.0536 2.33306 7.40316
head -6.66947 0.940361 3.05581
rclavicle -1.36416e-014 2.54444e-014
rhumerus -38.3091 -32.7763 -73.9558
rradius 18.1262
rwrist 30.4999
rhand -17.1527 13.1191
rfingers 7.12502
rthumb 9.08798 -16.6651
lclavicle -1.36416e-014 2.54444e-014
lhumerus -130.769 32.5375 -61.4994
lradius 13.6118
lwrist -125.279
lhand -3.22187 27.3713
lfingers 7.12502
lthumb 22.501 56.0803
rfemur 12.0341 4.92828 19.3346
rtibia -7.31528e-014
rfoot 2.8978 5.15445
rtoes -24.5835
lfemur -40.8837 -6.96989 -22.0991
ltibia 29.6204
lfoot -8.09706 4.99516
ltoes 4.29104
108
root 16.9731 16.4878 -0.0257736 -167.358 70.1628 174.197
lowerback -17.021 1.66977 -5.7116
upperback -6.34873 3.71909 -2.17792
thorax 2.53457 2.11016 1.62797
lowerneck 9.89304 1.0858 -5.22724
upperneck -15.891 2.09296 7.28208
head -6.58218 0.828321 3.01684
rclavicle -9.3553e-014 8.74653e-015
rhumerus -38.6097 -32.808 -73.6622
rradius 18.4161
rwrist 30.1282
rhand -16.9924 12.9484
rfingers 7.12502
rthumb 9.24265 -16.829
lclavicle -9.3553e-014 8.74653e-015
lhumerus -130.853 33.7046 -60.6115
lradius 13.5163
lwrist -124.39
lhand -3.23238 27.5526
lfingers 7.12502
lthumb 22.4909 56.2629
rfemur 9.19749 4.60306 19.2029
rtibia 6.73231
rfoot 1.63124 5.05116
rtoes -23.795
lfemur -40.0462 -6.94961 -22.3591
ltibia 29.5925
lfoot -8.72681 5.04478
ltoes 4.67553
109
root 17.0758 16.5043 -0.10187 -167.269 70.0386 174.419
lowerback -17.0122 1.74889 -5.57434
upperback -6.39997 3.80165 -2.17066
thorax 2.47911 2.15394 1.57152
lowerneck 10.2314 1.07164 -5.18389
upperneck -15.9763 2.06115 7.24798
head -6.66625 0.804194 3.00256
rclavicle 2.64384e-014 1.94809e-014
rhumerus -38.9956 -32.9369 -73.2475
rradius 18.4578
rwrist 30.4734
rhand -17.4069 12.9967
rfingers 7.12502
rthumb 8.84271 -16.798
lclavicle 2.64384e-014 1.94809e-014
lhumerus -130.146 35.4414 -58.6619
lradius 13.2453
lwrist -122.547
lhand -3.76011 27.9922
lfingers 7.12502
lthumb 21.9843 56.7629
rfemur 7.37312 4.31023 19.1002
rtibia 10.9806
rfoot 1.75341 5.58703
rtoes -23.4308
lfemur -39.3606 -7.02933 -22.5023
ltibia 29.4941
lfoot -9.25773 5.17609
ltoes 4.89412
110
root 17.1711 16.5187 -0.181898 -167.137 69.8456 174.633
lowerback -16.9377 1.80034 -5.26837
upperback -6.50459 3.81993 -2.20794
thorax 2.3517 2.16794 1.35757
lowerneck 10.3655 1.03764 -5.45203
upperneck -15.8321 1.99802 7.53789
head -6.64421 0.761753 3.14615
rclavicle -6.79347e-014 -1.55052e-014
rhumerus -39.492 -33.2042 -72.7233
rradius 18.2311
rwrist 31.1608
rhand -17.0847 12.9267
rfingers 7.12502
rthumb 9.15363 -16.8546
lclavicle -6.79347e-014 -1.55052e-014
lhumerus -128.225 37.9788 -55.0499
lradius 12.8015
lwrist -119.225
lhand -4.04446 28.0609
lfingers 7.12502
lthumb 21.7113 56.8634
rfemur 5.76839 3.38952 18.8755
rtibia 14.6089
rfoot 2.20988 6.76111
rtoes -22.6163
lfemur -38.7238 -7.16886 -22.6576
ltibia 29.3413
lfoot -9.68329 5.24768
ltoes 5.66697
111
root 17.2669 16.5318 -0.261408 -167.389 69.7221 174.552
lowerback -16.7978 1.88258 -5.07997
upperback -6.50456 3.88645 -2.22565
thorax 2.28875 2.19888 1.23838
lowerneck 10.3286 0.952293 -5.65147
upperneck -15.7258 1.85091 7.61596
head -6.59548 0.695939 3.21675
rclavicle -3.99309e-014 3.81667e-014
rhumerus -39.84 -33.4158 -72.2739
rradius 18.3019
rwrist 31.2868
rhand -16.4145 12.6513
rfingers 7.12502
rthumb 9.80023 -17.1007
lclavicle -3.99309e-014 3.81667e-014
lhumerus -127.192 39.9333 -52.5641
lradius 12.6336
lwrist -117.112
lhand -3.61034 26.8063
lfingers 7.12502
lthumb 22.1281 55.56
rfemur 4.37346 2.5621 18.5187
rtibia 17.9929
rfoot 3.19196 7.7477
rtoes -19.2713
lfemur -37.934 -7.29928 -22.9283
ltibia 29.1685
lfoot -10.0986 5.33675
ltoes 6.80775
112
root 17.3603 16.5428 -0.339164 -167.909 69.6593 174.092
lowerback -16.7723 1.93352 -5.10392
upperback -6.50483 3.95673 -2.24259
thorax 2.27082 2.23458 1.24485
lowerneck 10.2586 0.923814 -5.61391
upperneck -15.5899 1.76621 7.37928
head -6.53215 0.671027 3.1391
rclavicle -3.24019e-014 1.47101e-014
rhumerus -39.9471 -33.5457 -71.9374
rradius 18.47
rwrist 30.6894
rhand -16.3461 12.5132
rfingers 7.12502
rthumb 9.86622 -17.2357
lclavicle -3.24019e-014 1.47101e-014
lhumerus -127.148 41.2054 -51.5125
lradius 12.6397
lwrist -116.147
lhand -3.45402 25.1687
lfingers 7.12502
lthumb 22.2782 53.9045
rfemur 2.9625 1.80345 18.0088
rtibia 21.1415
rfoot 4.65704 8.90184
rtoes -14.8486
lfemur -37.2424 -7.56596 -23.2555
ltibia 28.9836
lfoot -10.4289 5.56562
ltoes 7.15708
113
root 17.4459 16.5485 -0.41759 -168.175 69.5085 173.7
lowerback -16.8938 1.84718 -5.059
upperback -6.61407 3.85655 -2.29759
thorax 2.23156 2.19274 1.14721
lowerneck 10.3849 0.973857 -5.27775
upperneck -15.49 1.80985 7.01076
head -6.52087 0.696276 2.95848
rclavicle -5.91633e-014 1.19271e-015
rhumerus -40.2716 -33.9931 -71.3391
rradius 17.9762
rwrist 31.8756
rhand -17.1985 13.323
rfingers 7.12502
rthumb 9.0438 -16.4632
lclavicle -5.91633e-014 1.19271e-015
lhumerus -124.827 43.6209 -47.5624
lradius 12.379
lwrist -112.458
lhand -3.74301 24.6647
lfingers 7.12502
lthumb 22.0007 53.4335
rfemur 1.37991 0.848241 17.5091
rtibia 24.1691
rfoot 5.03596 9.9067
rtoes -16.0628
lfemur -36.8076 -7.86431 -23.5518
ltibia 28.7828
lfoot -10.6919 5.71052
ltoes 6.80136
114
root 17.5428 16.5557 -0.485464 -168.544 69.3635 173.51
lowerback -16.9036 1.73682 -5.15281
upperback -6.56124 3.72407 -2.26504
thorax 2.29116 2.12433 1.21275
lowerneck 10.6572 0.969092 -4.87945
upperneck -15.6681 1.79558 6.58883
head -6.61856 0.693315 2.75861
rclavicle 1.10822e-014 -3.97569e-016
rhumerus -40.2708 -33.9247 -71.2659
rradius 17.832
rwrist 32.1044
rhand -16.8409 13.2148
rfingers 7.12502
rthumb 9.3889 -16.5561
lclavicle 1.10822e-014 -3.97569e-016
lhumerus -120.079 47.0347 -40.2971
lradius 12.0873
lwrist -106.576
lhand -3.95412 24.3449
lfingers 7.12502
lthumb 21.798 53.1373
rfemur 0.211265 0.117096 17.1854
rtibia 27.0864
rfoot 5.7596 10.6586
rtoes -14.4494
lfemur -35.9877 -7.89755 -23.8574
ltibia 28.547
lfoot -11.0794 5.68387
ltoes 6.75398
115
root 17.6342 16.5666 -0.554575 -168.711 69.2623 173.49
lowerback -16.8884 1.79042 -5.11717
upperback -6.50364 3.78479 -2.26029
thorax 2.34306 2.14937 1.20987
lowerneck 10.846 0.909788 -4.72717
upperneck -15.8473 1.71573 6.42516
head -6.70173 0.655716 2.68927
rclavicle 7.55133e-014 3.93594e-014
rhumerus -40.3635 -33.9224 -71.1326
rradius 18.0152
rwrist 32.0749
rhand -16.0861 12.7501
rfingers 7.12502
rthumb 10.1171 -16.9867
lclavicle 7.55133e-014 3.93594e-014
lhumerus -115.152 50.0031 -33.1023
lradius 11.9305
lwrist -101.634
lhand -4.21298 23.9123
lfingers 7.12502
lthumb 21.5494 52.7335
rfemur -1.062 -0.573472 16.8896
rtibia 29.9277
rfoot 6.9946 11.243
rtoes -10.7132
lfemur -35.2319 -7.91596 -24.0804
ltibia 28.2632
lfoot -11.3754 5.65216
ltoes 7.16264
